<svg xmlns="http://www.w3.org/2000/svg" viewBox="0 0 96 112" role="img" aria-label="rank 3 medal">
  <defs>
    <linearGradient id="r3" x1="18" y1="8" x2="78" y2="82" gradientUnits="userSpaceOnUse">
      <stop stop-color="#ffc47a"/>
      <stop offset=".5" stop-color="#c96f34"/>
      <stop offset="1" stop-color="#8f3f1e"/>
    </linearGradient>
  </defs>
  <path d="M30 70h16l-9 38-9-13-17 5 19-30Z" fill="#dc7b2b"/>
  <path d="M50 70h16l19 30-17-5-9 13-9-38Z" fill="#3d9fc2"/>
  <path d="M48 4l11 9 14-2 6 13 13 6-2 14 9 11-9 11 2 14-13 6-6 13-14-2-11 9-11-9-14 2-6-13-13-6 2-14-9-11 9-11-2-14 13-6 6-13 14 2L48 4Z" fill="url(#r3)" stroke="#ffd19a" stroke-width="3"/>
  <circle cx="48" cy="55" r="29" fill="#d98242" stroke="#8d3f1d" stroke-width="3"/>
  <text x="48" y="67" text-anchor="middle" font-family="Arial, sans-serif" font-size="38" font-weight="900" fill="#ffd8a8" stroke="#7a3519" stroke-width="1.3">3</text>
</svg>
