<svg xmlns="http://www.w3.org/2000/svg" viewBox="0 0 96 112" role="img" aria-label="rank 2 medal">
  <defs>
    <linearGradient id="r2" x1="18" y1="8" x2="78" y2="82" gradientUnits="userSpaceOnUse">
      <stop stop-color="#f4f4f5"/>
      <stop offset=".5" stop-color="#b8b8bf"/>
      <stop offset="1" stop-color="#7f7f89"/>
    </linearGradient>
  </defs>
  <path d="M30 70h16l-9 38-9-13-17 5 19-30Z" fill="#4c87d9"/>
  <path d="M50 70h16l19 30-17-5-9 13-9-38Z" fill="#b4b1b6"/>
  <path d="M48 4l11 9 14-2 6 13 13 6-2 14 9 11-9 11 2 14-13 6-6 13-14-2-11 9-11-9-14 2-6-13-13-6 2-14-9-11 9-11-2-14 13-6 6-13 14 2L48 4Z" fill="url(#r2)" stroke="#f7f7f8" stroke-width="3"/>
  <circle cx="48" cy="55" r="29" fill="#c7c7cc" stroke="#7c7c86" stroke-width="3"/>
  <text x="48" y="67" text-anchor="middle" font-family="Arial, sans-serif" font-size="38" font-weight="900" fill="#f3f4f6" stroke="#777782" stroke-width="1.3">2</text>
</svg>
